<svg id="svg" version="1.1" xmlns="http://www.w3.org/2000/svg" xmlns:xlink="http://www.w3.org/1999/xlink" width="400" height="400" viewBox="0, 0, 400,400"><g id="svgg"><path id="path0" d="M190.820 12.125 C 44.635 20.722,-37.020 184.136,44.241 305.469 C 125.024 426.089,307.314 413.112,370.737 282.227 C 432.987 153.763,333.068 3.759,190.820 12.125 M221.267 22.272 C 329.494 34.809,401.748 138.963,375.588 244.727 C 358.530 313.689,301.722 366.557,231.828 378.516 C 111.719 399.066,6.576 297.247,23.079 176.367 C 36.225 80.079,124.926 11.113,221.267 22.272 M114.160 61.416 C 111.313 64.274,108.984 66.776,108.984 66.977 C 108.984 67.178,116.214 74.586,125.050 83.439 C 139.845 98.263,141.100 99.623,140.927 100.646 C 140.783 101.489,134.113 124.686,133.418 126.758 C 133.345 126.973,127.346 128.894,120.086 131.028 L 106.886 134.908 90.611 118.345 L 74.335 101.782 68.814 107.043 C 65.777 109.937,63.293 112.480,63.295 112.695 C 63.297 112.910,66.047 116.953,69.405 121.680 C 72.763 126.406,80.338 137.129,86.239 145.508 C 92.139 153.887,96.993 160.774,97.025 160.814 C 97.071 160.870,139.309 151.653,141.881 151.025 C 142.458 150.884,151.964 160.563,160.614 170.098 L 162.015 171.642 163.977 169.878 C 167.159 167.017,171.499 165.211,177.508 164.248 L 179.039 164.002 157.878 142.839 L 136.717 121.675 139.380 111.545 C 140.845 105.974,142.214 101.358,142.422 101.289 C 142.736 101.184,155.514 113.846,159.066 117.782 L 160.124 118.955 158.174 126.918 C 157.101 131.297,156.273 134.990,156.334 135.125 C 156.395 135.259,162.922 141.498,170.837 148.990 L 185.229 162.612 186.971 160.870 L 188.712 159.129 173.647 144.930 C 163.270 135.150,158.640 130.539,158.769 130.112 C 158.872 129.771,159.407 127.393,159.956 124.828 C 161.172 119.156,160.978 119.352,163.055 121.702 C 163.994 122.764,164.851 123.545,164.960 123.438 C 165.068 123.330,166.761 116.211,168.720 107.617 C 170.680 99.023,172.380 91.627,172.498 91.181 C 172.684 90.476,170.986 89.253,159.501 81.821 C 152.234 77.119,140.488 69.503,133.398 64.898 C 126.309 60.292,120.244 56.455,119.922 56.372 C 119.571 56.281,117.258 58.306,114.160 61.416 M216.111 149.709 L 186.326 179.496 196.875 190.039 L 207.424 200.583 237.326 170.681 L 267.228 140.779 259.521 133.182 C 255.282 129.004,250.591 124.312,249.096 122.754 C 247.601 121.196,246.269 119.922,246.137 119.922 C 246.005 119.922,232.493 133.326,216.111 149.709 M339.437 148.586 C 340.395 149.579,341.352 150.391,341.564 150.391 C 342.069 150.391,339.487 147.711,338.477 147.187 C 338.047 146.964,338.479 147.593,339.437 148.586 M231.933 202.832 C 231.820 204.175,231.664 205.481,231.586 205.735 C 231.462 206.141,250.324 224.128,300.467 271.420 C 308.350 278.856,314.749 284.990,314.687 285.052 C 314.625 285.115,313.712 284.780,312.658 284.308 C 310.070 283.150,304.851 282.873,301.882 283.736 L 299.739 284.359 263.848 248.463 L 227.957 212.567 226.519 213.707 C 224.223 215.525,214.063 225.817,214.063 226.324 C 214.063 226.917,293.184 311.031,295.623 313.031 C 308.118 323.277,326.899 314.795,327.068 298.828 C 327.148 291.223,324.885 287.702,312.234 275.749 C 307.117 270.914,293.350 257.917,281.641 246.866 C 269.932 235.816,254.079 220.839,246.413 213.583 C 238.746 206.327,232.398 200.391,232.306 200.391 C 232.214 200.391,232.046 201.489,231.933 202.832 M313.086 288.320 C 317.778 289.596,322.094 297.433,321.078 302.832 C 318.688 315.533,303.118 316.273,297.366 303.960 C 293.389 295.448,303.244 285.643,313.086 288.320 " stroke="none" fill="#bcc3d8" fill-rule="evenodd"></path><path id="path1" d="M192.383 2.195 C 188.351 2.408,179.637 3.143,176.172 3.563 C 158.297 5.728,138.797 11.030,122.461 18.165 C 116.723 20.671,112.689 22.559,110.592 23.718 C 109.220 24.477,107.199 25.576,106.100 26.161 C 100.297 29.250,93.646 33.371,86.719 38.170 C 68.004 51.135,48.271 71.445,35.754 90.625 C 34.282 92.881,32.760 95.195,32.373 95.767 C 27.362 103.159,19.592 119.079,14.578 132.227 C 3.366 161.623,-0.153 200.019,5.310 233.345 C 6.371 239.813,8.560 249.347,9.028 249.537 C 9.195 249.605,9.246 249.882,9.142 250.153 C 9.038 250.425,9.159 251.160,9.411 251.788 C 9.664 252.416,9.936 253.457,10.017 254.102 C 10.098 254.746,10.432 255.474,10.761 255.718 C 11.136 255.997,11.290 256.544,11.174 257.183 C 11.072 257.744,11.148 258.203,11.342 258.203 C 11.536 258.203,11.593 258.467,11.469 258.789 C 11.346 259.111,11.434 259.375,11.665 259.375 C 11.896 259.375,11.984 259.639,11.860 259.961 C 11.736 260.283,11.824 260.547,12.055 260.547 C 12.286 260.547,12.380 260.797,12.262 261.103 C 11.759 262.414,13.502 261.285,16.345 258.459 C 18.013 256.801,19.482 255.549,19.609 255.677 C 19.737 255.804,19.425 254.447,18.916 252.661 C -20.133 115.541,103.502 -15.250,242.383 16.260 C 244.746 16.797,247.039 17.279,247.477 17.334 C 247.916 17.388,248.444 17.528,248.649 17.646 C 250.606 18.768,251.170 18.510,254.838 14.814 C 256.939 12.697,258.197 11.154,257.908 11.049 C 257.638 10.951,257.533 10.683,257.675 10.453 C 257.822 10.216,257.750 10.149,257.509 10.298 C 257.276 10.442,256.974 10.380,256.839 10.161 C 256.704 9.942,256.164 9.870,255.640 10.002 C 255.072 10.144,254.688 10.071,254.688 9.820 C 254.688 9.587,254.384 9.509,254.004 9.645 C 253.613 9.785,253.457 9.741,253.639 9.542 C 254.003 9.144,247.776 7.450,240.996 6.103 C 232.510 4.417,227.700 3.701,219.638 2.923 C 213.819 2.361,197.496 1.925,192.383 2.195 M191.776 21.514 C 96.626 26.248,21.488 105.521,21.488 201.172 C 21.488 312.685,122.018 397.258,232.031 378.295 C 299.026 366.746,354.929 316.671,373.603 251.480 C 405.754 139.244,326.080 27.531,209.570 21.486 C 201.485 21.066,200.747 21.068,191.776 21.514 M233.203 41.208 C 254.907 44.545,265.430 50.756,288.023 73.563 C 318.512 104.341,321.917 108.472,328.136 122.223 C 331.322 129.268,331.007 128.918,334.338 129.115 C 353.362 130.241,365.050 151.688,355.081 167.177 C 353.200 170.100,330.845 192.152,328.031 193.860 C 309.007 205.411,284.097 184.541,291.889 163.580 L 292.867 160.950 290.945 159.152 C 289.792 158.073,288.795 157.441,288.453 157.572 C 285.094 158.861,275.671 158.835,271.624 157.525 L 269.224 156.749 253.963 172.027 L 238.702 187.305 253.824 201.600 C 262.141 209.463,282.832 229.016,299.805 245.052 C 316.777 261.087,331.691 275.397,332.946 276.850 C 357.898 305.737,320.725 348.946,288.387 328.644 C 283.037 325.285,287.420 329.812,218.564 256.517 C 209.546 246.917,202.066 239.063,201.942 239.063 C 201.818 239.063,196.261 244.819,189.594 251.855 C 182.927 258.892,165.233 277.568,150.273 293.359 C 135.314 309.150,122.058 322.917,120.815 323.951 C 111.777 331.472,99.014 331.419,87.891 323.815 C 84.633 321.588,61.803 298.329,60.213 295.617 C 54.884 286.528,55.182 277.501,61.087 269.182 C 61.757 268.238,81.816 248.749,105.664 225.873 C 129.512 202.997,149.189 184.052,149.392 183.774 C 149.660 183.405,148.077 181.481,143.565 176.693 C 140.158 173.076,137.250 169.976,137.102 169.804 C 136.954 169.631,128.854 171.027,119.100 172.906 C 95.725 177.410,94.264 177.372,89.648 172.148 C 87.038 169.194,52.820 119.724,51.645 117.205 C 50.154 114.010,50.235 110.266,51.866 106.957 C 53.320 104.008,68.958 88.174,71.637 86.940 C 74.717 85.520,77.621 85.318,80.870 86.298 L 83.789 87.178 97.901 101.243 L 112.012 115.308 115.711 114.259 L 119.410 113.209 120.425 109.632 L 121.441 106.055 107.659 92.188 C 91.913 76.344,92.005 76.468,92.021 71.094 C 92.036 65.819,92.355 65.340,102.855 54.778 C 112.893 44.681,114.093 43.814,118.532 43.458 C 123.146 43.088,120.414 41.507,165.820 70.821 C 188.539 85.489,187.372 82.562,181.271 109.570 C 179.086 119.238,177.210 127.512,177.102 127.956 C 176.942 128.608,178.978 130.727,187.736 139.023 L 198.567 149.284 214.891 132.943 L 231.215 116.602 230.856 113.867 C 230.329 109.868,230.992 105.242,232.694 101.037 C 234.454 96.688,234.207 94.926,231.212 90.448 C 223.105 78.327,202.159 68.445,189.943 70.976 C 173.212 74.444,164.657 52.789,180.411 46.851 C 194.502 41.540,218.606 38.963,233.203 41.208 " stroke="none" fill="#0b3fe8" fill-rule="evenodd"></path><path id="path2" d="M211.523 46.738 C 210.879 46.813,208.682 47.061,206.641 47.289 C 193.814 48.720,181.045 52.445,179.304 55.262 C 175.656 61.165,181.566 66.341,190.035 64.660 C 204.712 61.748,230.837 75.385,237.909 89.648 C 240.560 94.996,240.728 97.971,238.651 102.755 C 236.678 107.297,236.332 112.516,237.700 117.070 L 238.193 118.711 218.730 138.066 C 208.026 148.712,199.053 157.422,198.790 157.422 C 198.528 157.422,197.325 156.499,196.119 155.371 C 179.504 139.842,170.313 130.989,170.313 130.514 C 170.313 130.193,172.269 121.307,174.659 110.766 C 179.255 90.505,179.464 89.081,178.158 86.967 C 177.471 85.856,126.650 52.447,121.998 50.049 C 118.624 48.310,116.375 49.696,106.798 59.419 C 98.874 67.464,98.047 68.567,98.047 71.094 C 98.047 73.650,98.416 74.080,113.634 89.245 C 122.087 97.669,128.125 103.982,128.125 104.396 C 128.125 105.259,124.625 117.662,124.273 118.046 C 124.136 118.195,120.947 119.202,117.188 120.283 L 110.352 122.248 95.703 107.622 C 75.810 87.759,77.892 88.204,65.140 101.099 C 55.048 111.305,54.934 111.670,59.705 118.600 C 75.450 141.468,94.001 167.948,94.761 168.638 C 97.097 170.759,96.994 170.768,118.635 166.654 C 129.548 164.580,138.591 162.884,138.731 162.887 C 139.007 162.891,149.735 174.170,155.002 179.992 L 158.245 183.579 153.244 188.610 C 150.493 191.378,130.840 210.311,109.570 230.684 C 65.951 272.465,67.406 271.044,65.721 273.493 C 61.589 279.499,61.634 286.344,65.849 292.843 C 67.972 296.118,90.194 318.200,93.033 319.857 C 101.291 324.677,110.640 324.443,116.818 319.262 C 117.538 318.658,134.464 300.938,154.431 279.883 C 174.398 258.828,193.265 239.018,196.358 235.859 L 201.982 230.117 206.988 235.274 C 209.742 238.109,227.249 256.689,245.892 276.563 C 290.015 323.594,288.312 321.887,293.955 324.720 C 317.111 336.343,343.419 310.389,332.275 286.914 C 330.239 282.626,328.881 281.190,309.276 262.616 C 244.460 201.206,233.222 190.535,231.686 188.943 L 229.973 187.168 248.873 168.169 L 267.773 149.170 270.313 150.314 C 275.279 152.552,280.653 153.044,286.198 151.768 C 290.823 150.704,293.526 152.042,298.136 157.681 L 300.373 160.417 298.812 163.509 C 290.910 179.162,307.860 196.590,323.784 189.187 C 327.354 187.528,348.750 166.083,350.606 162.305 C 355.979 151.368,348.728 137.773,336.335 135.544 C 334.126 135.147,330.479 135.268,329.138 135.782 C 328.401 136.065,325.503 131.289,322.713 125.195 C 316.389 111.382,314.588 109.257,276.515 70.676 C 258.590 52.512,235.366 43.958,211.523 46.738 M232.617 53.689 C 252.041 57.187,258.175 61.127,282.729 85.881 C 309.056 112.421,311.596 115.508,316.970 127.498 C 320.081 134.439,322.609 138.570,325.876 142.051 L 327.031 143.281 328.847 142.464 C 338.673 138.043,349.782 149.685,345.117 159.515 C 343.662 162.583,321.856 183.481,319.365 184.196 C 307.450 187.617,297.947 172.805,306.317 163.858 C 309.138 160.842,309.213 161.397,305.334 156.584 C 296.925 146.149,293.020 144.123,284.466 145.756 C 278.053 146.981,273.511 145.958,268.805 142.231 L 267.332 141.064 237.350 171.048 C 211.958 196.442,207.458 201.106,207.953 201.517 C 208.917 202.317,209.766 205.444,209.761 208.175 C 209.753 212.028,208.818 213.600,202.734 219.989 C 199.834 223.035,178.704 245.315,155.779 269.502 C 112.832 314.811,111.545 316.080,107.718 316.879 C 101.085 318.264,97.659 316.406,86.353 305.290 C 69.860 289.075,68.978 287.945,68.960 283.008 C 68.944 278.297,68.962 278.275,89.834 258.235 C 128.588 221.028,148.934 201.506,157.617 193.198 C 162.559 188.470,167.971 183.276,169.646 181.656 C 174.723 176.743,179.295 175.589,184.058 178.018 L 186.280 179.152 215.947 149.439 L 245.615 119.727 244.392 117.188 C 242.618 113.501,242.647 108.843,244.470 104.976 C 248.490 96.447,245.914 87.160,236.926 77.781 C 224.164 64.463,202.489 55.654,189.140 58.359 C 187.364 58.719,185.708 58.889,185.462 58.736 C 184.395 58.077,200.263 54.387,207.813 53.538 C 209.854 53.309,212.139 53.051,212.891 52.965 C 216.068 52.600,229.260 53.084,232.617 53.689 M146.094 72.755 C 160.166 81.894,171.981 89.609,172.348 89.900 C 172.976 90.397,172.957 90.681,172.031 94.531 C 171.488 96.787,169.284 106.367,167.132 115.820 L 163.220 133.008 165.188 134.824 C 171.894 141.012,194.141 162.242,194.141 162.453 C 194.141 162.593,192.075 164.768,189.550 167.286 L 184.959 171.865 183.409 171.438 C 177.719 169.866,171.081 171.872,166.130 176.658 L 163.198 179.492 161.189 177.308 C 152.071 167.396,141.208 156.250,140.666 156.250 C 140.126 156.250,103.471 163.120,99.952 163.881 C 98.986 164.090,98.509 163.502,91.777 153.829 C 87.844 148.178,79.736 136.675,73.759 128.267 C 67.781 119.859,62.891 112.829,62.891 112.646 C 62.891 112.462,66.097 109.102,70.017 105.179 L 77.143 98.045 92.775 113.673 L 108.407 129.302 118.936 126.272 L 129.465 123.242 131.702 115.430 C 132.932 111.133,134.248 106.423,134.627 104.964 L 135.315 102.311 119.711 86.703 L 104.107 71.096 111.722 63.463 C 116.365 58.809,119.565 55.891,119.922 55.984 C 120.244 56.069,132.021 63.616,146.094 72.755 M225.999 61.153 C 242.689 70.579,252.993 84.827,252.681 98.047 L 252.585 102.148 264.993 114.453 C 271.818 121.221,279.892 129.438,282.937 132.715 C 288.285 138.470,288.525 138.672,290.037 138.681 C 296.267 138.719,302.165 142.542,309.077 151.020 C 316.785 160.474,317.088 162.176,311.960 167.172 C 307.335 171.677,309.870 178.125,316.266 178.125 L 318.117 178.125 324.493 171.777 L 330.868 165.430 325.405 160.547 C 319.374 155.156,319.508 155.358,320.941 153.862 L 321.959 152.799 275.958 106.380 C 225.716 55.681,229.801 59.448,225.000 59.398 L 222.852 59.375 225.999 61.153 M253.125 217.960 C 319.525 280.723,324.398 285.401,325.761 287.684 C 338.072 308.314,311.780 331.301,292.617 316.660 C 290.974 315.405,212.638 232.460,207.523 226.559 L 206.334 225.188 209.948 221.211 C 215.531 215.065,217.113 210.117,215.597 203.540 L 215.197 201.806 220.163 196.829 L 225.129 191.852 228.873 195.214 C 230.932 197.063,241.846 207.298,253.125 217.960 M303.783 289.995 C 297.216 292.442,295.940 305.719,301.982 308.730 C 308.930 312.193,316.761 307.414,316.788 299.694 C 316.812 292.922,309.854 287.733,303.783 289.995 M309.332 296.703 C 311.587 298.601,311.185 301.980,308.540 303.348 C 305.934 304.696,302.725 302.664,302.743 299.677 C 302.764 296.268,306.702 294.490,309.332 296.703 " stroke="none" fill="#0a0c1a" fill-rule="evenodd"></path><path id="path3" d="M212.891 52.990 C 204.496 53.795,195.693 55.392,188.893 57.345 C 184.336 58.654,184.493 59.301,189.140 58.359 C 209.458 54.242,242.225 74.628,245.987 93.727 C 246.611 96.891,246.633 96.929,249.371 99.598 L 252.127 102.284 251.217 105.341 L 250.307 108.398 266.072 123.927 L 281.836 139.456 285.191 139.208 L 288.547 138.960 290.758 141.785 C 293.033 144.693,293.323 145.293,292.480 145.340 C 292.212 145.355,292.649 145.609,293.452 145.904 C 296.657 147.081,300.905 150.961,305.999 157.363 C 309.129 161.298,309.108 160.874,306.317 163.858 C 297.947 172.805,307.450 187.617,319.365 184.196 C 321.856 183.481,343.662 162.583,345.117 159.515 C 349.781 149.687,338.673 138.042,328.851 142.462 C 327.164 143.221,326.989 143.233,326.325 142.635 C 325.933 142.281,326.485 142.964,327.552 144.152 L 329.492 146.313 330.858 145.767 C 336.734 143.420,344.561 149.907,343.000 155.831 C 342.351 158.294,336.659 164.844,335.168 164.844 C 333.495 164.844,333.557 163.242,335.303 161.299 C 336.297 160.194,337.109 159.156,337.109 158.991 C 337.109 158.087,327.586 150.194,326.014 149.795 C 323.073 149.049,320.627 146.482,315.415 138.672 C 312.230 133.898,311.354 132.987,276.293 97.981 L 240.430 62.172 237.855 61.391 C 236.439 60.962,234.154 60.399,232.777 60.139 C 230.392 59.690,230.120 59.518,227.038 56.494 L 223.802 53.320 225.084 53.079 C 226.394 52.832,215.374 52.752,212.891 52.990 M228.553 59.690 C 229.772 59.925,235.997 66.056,275.958 106.380 L 321.959 152.799 320.941 153.862 C 319.508 155.358,319.374 155.156,325.405 160.547 L 330.868 165.430 324.493 171.777 L 318.117 178.125 316.266 178.125 C 309.870 178.125,307.335 171.677,311.960 167.172 C 317.088 162.176,316.785 160.474,309.077 151.020 C 302.165 142.542,296.267 138.719,290.037 138.681 C 288.525 138.672,288.285 138.470,282.937 132.715 C 279.892 129.438,271.818 121.221,264.993 114.453 L 252.585 102.148 252.681 98.047 C 252.993 84.827,242.689 70.579,225.999 61.153 L 222.852 59.375 225.000 59.398 C 226.182 59.410,227.780 59.542,228.553 59.690 M106.244 68.951 L 104.117 71.105 119.594 86.627 C 128.107 95.164,135.164 102.412,135.278 102.734 C 135.461 103.253,135.489 103.253,135.516 102.736 C 135.533 102.415,128.563 95.167,120.027 86.629 L 104.507 71.105 106.635 68.951 C 107.805 67.766,108.674 66.797,108.567 66.797 C 108.460 66.797,107.414 67.766,106.244 68.951 M101.156 77.051 C 102.774 78.775,103.125 79.086,103.125 78.792 C 103.125 78.730,102.290 77.895,101.270 76.937 L 99.414 75.195 101.156 77.051 M279.492 82.813 C 281.848 85.176,283.864 87.109,283.971 87.109 C 284.078 87.109,282.239 85.176,279.883 82.813 C 277.527 80.449,275.511 78.516,275.404 78.516 C 275.297 78.516,277.136 80.449,279.492 82.813 M106.234 82.129 C 107.852 83.854,108.203 84.164,108.203 83.870 C 108.203 83.808,107.368 82.973,106.348 82.015 L 104.492 80.273 106.234 82.129 M111.719 87.695 C 113.535 89.521,115.110 91.016,115.217 91.016 C 115.325 91.016,113.926 89.521,112.109 87.695 C 110.293 85.869,108.718 84.375,108.611 84.375 C 108.504 84.375,109.902 85.869,111.719 87.695 M119.727 95.703 C 121.219 97.207,122.528 98.438,122.635 98.438 C 122.743 98.438,121.610 97.207,120.117 95.703 C 118.625 94.199,117.316 92.969,117.208 92.969 C 117.101 92.969,118.234 94.199,119.727 95.703 M297.461 101.172 C 300.032 103.750,302.224 105.859,302.332 105.859 C 302.439 105.859,300.423 103.750,297.852 101.172 C 295.280 98.594,293.088 96.484,292.981 96.484 C 292.874 96.484,294.890 98.594,297.461 101.172 M69.918 105.371 L 62.695 112.695 70.020 105.473 C 76.824 98.762,77.520 98.047,77.242 98.047 C 77.186 98.047,73.890 101.343,69.918 105.371 M221.483 144.043 L 197.461 168.164 221.582 144.142 C 244.004 121.812,245.878 119.922,245.604 119.922 C 245.550 119.922,234.695 130.776,221.483 144.043 M168.164 137.891 C 169.222 138.965,170.176 139.844,170.283 139.844 C 170.391 139.844,169.613 138.965,168.555 137.891 C 167.497 136.816,166.543 135.938,166.436 135.938 C 166.328 135.938,167.106 136.816,168.164 137.891 M175.586 144.922 C 176.644 145.996,177.598 146.875,177.705 146.875 C 177.812 146.875,177.035 145.996,175.977 144.922 C 174.918 143.848,173.965 142.969,173.857 142.969 C 173.750 142.969,174.528 143.848,175.586 144.922 M279.009 146.374 C 279.603 146.464,280.482 146.461,280.962 146.369 C 281.443 146.276,280.957 146.203,279.883 146.205 C 278.809 146.208,278.416 146.284,279.009 146.374 M196.549 151.692 L 194.529 153.738 196.399 155.580 C 198.700 157.846,198.634 157.847,200.940 155.506 C 203.053 153.360,203.059 153.406,200.455 151.226 L 198.569 149.647 196.549 151.692 M182.796 151.660 C 184.415 153.385,184.766 153.695,184.766 153.402 C 184.766 153.339,183.931 152.504,182.910 151.546 L 181.055 149.805 182.796 151.660 M140.625 156.133 C 140.947 156.249,141.914 156.983,142.773 157.762 L 144.336 159.180 142.792 157.520 C 141.943 156.606,140.976 155.873,140.643 155.890 C 140.119 155.917,140.116 155.949,140.625 156.133 M190.969 159.432 C 192.917 161.456,193.749 162.590,193.545 162.948 C 193.301 163.378,193.344 163.384,193.779 162.980 C 194.223 162.568,193.787 161.973,191.203 159.464 L 188.093 156.445 190.969 159.432 M148.242 163.672 C 149.081 164.531,149.856 165.234,149.963 165.234 C 150.071 165.234,149.472 164.531,148.633 163.672 C 147.794 162.813,147.019 162.109,146.912 162.109 C 146.804 162.109,147.403 162.813,148.242 163.672 M154.281 170.020 C 155.899 171.744,156.250 172.054,156.250 171.761 C 156.250 171.698,155.415 170.863,154.395 169.906 L 152.539 168.164 154.281 170.020 M177.647 170.990 C 178.566 171.072,179.972 171.071,180.772 170.987 C 181.572 170.903,180.820 170.836,179.102 170.837 C 177.383 170.838,176.728 170.907,177.647 170.990 M191.002 174.512 L 188.867 176.758 191.113 174.623 C 193.200 172.639,193.538 172.266,193.248 172.266 C 193.187 172.266,192.177 173.276,191.002 174.512 M165.138 177.234 L 163.295 179.078 161.628 177.534 L 159.961 175.990 161.622 177.736 L 163.282 179.482 165.328 177.436 C 166.453 176.311,167.285 175.391,167.178 175.391 C 167.070 175.391,166.152 176.220,165.138 177.234 M151.941 181.494 L 150.010 183.301 152.013 185.498 L 154.017 187.695 156.200 185.652 L 158.383 183.608 156.453 181.648 C 154.110 179.270,154.312 179.276,151.941 181.494 M232.104 185.215 C 229.517 187.967,229.945 188.443,232.765 185.950 C 234.285 184.606,234.770 183.943,234.522 183.550 C 234.259 183.133,233.699 183.519,232.104 185.215 M222.254 185.840 L 219.727 188.477 222.363 185.949 C 223.813 184.559,225.000 183.372,225.000 183.312 C 225.000 183.025,224.602 183.391,222.254 185.840 M164.063 186.914 C 163.114 187.881,162.425 188.672,162.533 188.672 C 162.640 188.672,163.504 187.881,164.453 186.914 C 165.402 185.947,166.090 185.156,165.983 185.156 C 165.876 185.156,165.011 185.947,164.063 186.914 M220.166 196.826 L 215.197 201.806 215.597 203.540 C 216.976 209.524,215.418 215.292,211.207 219.794 C 209.935 221.153,209.027 222.266,209.189 222.266 C 209.352 222.266,209.688 221.987,209.936 221.647 C 210.185 221.307,210.995 220.958,211.737 220.870 C 212.479 220.783,213.613 220.636,214.258 220.544 C 214.902 220.452,216.186 220.362,217.110 220.345 C 219.845 220.292,222.266 214.136,222.266 207.234 L 222.266 203.694 225.562 200.415 L 228.858 197.136 230.249 198.197 C 233.180 200.433,231.782 197.881,228.388 194.799 L 225.135 191.846 220.166 196.826 M148.768 241.903 C 121.623 269.239,97.445 293.627,95.038 296.098 L 90.661 300.590 94.677 304.690 C 99.112 309.218,101.318 310.593,104.582 310.864 C 107.789 311.129,108.400 310.661,117.660 300.838 C 122.449 295.758,129.538 288.262,133.414 284.180 C 137.290 280.098,146.948 269.902,154.877 261.523 C 185.057 229.630,196.772 217.265,200.087 213.805 L 203.516 210.227 203.509 208.141 C 203.503 206.478,203.265 205.706,202.337 204.336 C 200.895 202.209,200.762 199.701,201.982 197.699 L 202.790 196.375 201.102 194.642 C 200.174 193.689,199.123 192.749,198.768 192.554 C 198.244 192.267,188.827 201.561,148.768 241.903 M155.065 195.605 L 152.930 197.852 155.176 195.716 C 157.262 193.733,157.601 193.359,157.311 193.359 C 157.250 193.359,156.239 194.370,155.065 195.605 M233.203 199.414 C 233.932 200.166,234.616 200.781,234.724 200.781 C 234.831 200.781,234.323 200.166,233.594 199.414 C 232.865 198.662,232.181 198.047,232.073 198.047 C 231.966 198.047,232.474 198.662,233.203 199.414 M145.690 204.590 L 143.555 206.836 145.801 204.701 C 147.036 203.527,148.047 202.516,148.047 202.455 C 148.047 202.165,147.673 202.503,145.690 204.590 M240.039 205.859 C 241.097 206.934,242.051 207.813,242.158 207.813 C 242.266 207.813,241.488 206.934,240.430 205.859 C 239.372 204.785,238.418 203.906,238.311 203.906 C 238.203 203.906,238.981 204.785,240.039 205.859 M209.341 209.818 C 209.224 210.564,194.600 225.473,156.123 264.072 L 103.067 317.297 105.789 317.102 C 109.279 316.852,111.672 315.698,114.488 312.907 C 116.855 310.561,201.657 221.208,205.906 216.582 C 208.481 213.780,209.999 210.930,209.671 209.515 C 209.541 208.959,209.464 209.030,209.341 209.818 M247.070 212.500 C 248.128 213.574,249.082 214.453,249.189 214.453 C 249.297 214.453,248.519 213.574,247.461 212.500 C 246.403 211.426,245.449 210.547,245.342 210.547 C 245.234 210.547,246.012 211.426,247.070 212.500 M135.924 213.965 L 133.789 216.211 136.035 214.076 C 138.122 212.092,138.460 211.719,138.170 211.719 C 138.109 211.719,137.098 212.729,135.924 213.965 M254.492 219.531 C 255.550 220.605,256.504 221.484,256.611 221.484 C 256.719 221.484,255.941 220.605,254.883 219.531 C 253.825 218.457,252.871 217.578,252.764 217.578 C 252.656 217.578,253.434 218.457,254.492 219.531 M126.355 223.145 L 124.023 225.586 126.465 223.254 C 127.808 221.972,128.906 220.873,128.906 220.813 C 128.906 220.524,128.521 220.877,126.355 223.145 M207.482 223.962 C 206.293 225.188,206.259 225.299,206.917 225.798 C 207.515 226.252,207.546 226.250,207.128 225.781 C 206.728 225.333,206.866 225.000,207.889 223.945 C 208.576 223.236,209.050 222.656,208.942 222.656 C 208.835 222.656,208.178 223.244,207.482 223.962 M261.702 226.270 C 262.660 227.290,263.495 228.125,263.558 228.125 C 263.851 228.125,263.541 227.774,261.816 226.156 L 259.961 224.414 261.702 226.270 M208.203 227.466 C 208.203 227.533,208.774 228.104,209.473 228.736 L 210.742 229.883 209.595 228.613 C 208.525 227.430,208.203 227.164,208.203 227.466 M116.393 232.715 L 114.258 234.961 116.504 232.826 C 118.591 230.842,118.929 230.469,118.639 230.469 C 118.578 230.469,117.567 231.479,116.393 232.715 M269.124 233.301 C 270.743 235.025,271.094 235.336,271.094 235.042 C 271.094 234.980,270.259 234.145,269.238 233.187 L 267.383 231.445 269.124 233.301 M214.437 234.082 C 216.056 235.807,216.406 236.117,216.406 235.824 C 216.406 235.761,215.571 234.926,214.551 233.968 L 212.695 232.227 214.437 234.082 M275.977 239.844 C 277.035 240.918,277.988 241.797,278.096 241.797 C 278.203 241.797,277.425 240.918,276.367 239.844 C 275.309 238.770,274.356 237.891,274.248 237.891 C 274.141 237.891,274.918 238.770,275.977 239.844 M220.687 240.723 C 221.645 241.743,222.480 242.578,222.542 242.578 C 222.836 242.578,222.525 242.227,220.801 240.609 L 218.945 238.867 220.687 240.723 M106.627 242.090 L 104.492 244.336 106.738 242.201 C 108.825 240.217,109.163 239.844,108.873 239.844 C 108.812 239.844,107.802 240.854,106.627 242.090 M283.203 246.680 C 284.370 247.861,285.413 248.828,285.520 248.828 C 285.628 248.828,284.761 247.861,283.594 246.680 C 282.427 245.498,281.384 244.531,281.277 244.531 C 281.169 244.531,282.036 245.498,283.203 246.680 M226.546 246.973 C 227.504 247.993,228.339 248.828,228.402 248.828 C 228.695 248.828,228.385 248.477,226.660 246.859 L 224.805 245.117 226.546 246.973 M96.665 251.660 L 94.727 253.711 96.777 251.772 C 97.905 250.706,98.828 249.784,98.828 249.722 C 98.828 249.430,98.466 249.755,96.665 251.660 M290.430 253.516 C 291.488 254.590,292.441 255.469,292.549 255.469 C 292.656 255.469,291.878 254.590,290.820 253.516 C 289.762 252.441,288.809 251.563,288.701 251.563 C 288.594 251.563,289.372 252.441,290.430 253.516 M232.617 253.516 C 233.456 254.375,234.231 255.078,234.338 255.078 C 234.446 255.078,233.847 254.375,233.008 253.516 C 232.169 252.656,231.394 251.953,231.287 251.953 C 231.179 251.953,231.778 252.656,232.617 253.516 M238.656 259.863 C 239.613 260.884,240.448 261.719,240.511 261.719 C 240.804 261.719,240.494 261.368,238.770 259.749 L 236.914 258.008 238.656 259.863 M87.096 260.840 L 84.961 263.086 87.207 260.951 C 88.442 259.777,89.453 258.766,89.453 258.705 C 89.453 258.415,89.080 258.753,87.096 260.840 M297.640 260.254 C 298.598 261.274,299.433 262.109,299.495 262.109 C 299.789 262.109,299.479 261.759,297.754 260.140 L 295.898 258.398 297.640 260.254 M244.906 266.504 C 245.863 267.524,246.698 268.359,246.761 268.359 C 247.054 268.359,246.744 268.009,245.020 266.390 L 243.164 264.648 244.906 266.504 M304.883 267.188 C 305.941 268.262,306.894 269.141,307.002 269.141 C 307.109 269.141,306.332 268.262,305.273 267.188 C 304.215 266.113,303.262 265.234,303.154 265.234 C 303.047 265.234,303.825 266.113,304.883 267.188 M77.527 270.020 L 75.195 272.461 77.637 270.129 C 78.979 268.847,80.078 267.748,80.078 267.688 C 80.078 267.399,79.693 267.752,77.527 270.020 M250.586 272.656 C 251.425 273.516,252.200 274.219,252.307 274.219 C 252.414 274.219,251.816 273.516,250.977 272.656 C 250.137 271.797,249.363 271.094,249.256 271.094 C 249.148 271.094,249.747 271.797,250.586 272.656 M311.914 273.828 C 312.972 274.902,313.926 275.781,314.033 275.781 C 314.141 275.781,313.363 274.902,312.305 273.828 C 311.247 272.754,310.293 271.875,310.186 271.875 C 310.078 271.875,310.856 272.754,311.914 273.828 M256.624 279.004 C 258.243 280.729,258.594 281.039,258.594 280.745 C 258.594 280.683,257.759 279.848,256.738 278.890 L 254.883 277.148 256.624 279.004 M319.336 280.859 C 320.394 281.934,321.348 282.813,321.455 282.813 C 321.562 282.813,320.785 281.934,319.727 280.859 C 318.668 279.785,317.715 278.906,317.607 278.906 C 317.500 278.906,318.278 279.785,319.336 280.859 M262.874 285.645 C 263.832 286.665,264.667 287.500,264.730 287.500 C 265.023 287.500,264.713 287.149,262.988 285.531 L 261.133 283.789 262.874 285.645 M268.945 292.188 C 269.784 293.047,270.559 293.750,270.666 293.750 C 270.774 293.750,270.175 293.047,269.336 292.188 C 268.497 291.328,267.722 290.625,267.615 290.625 C 267.507 290.625,268.106 291.328,268.945 292.188 M312.891 291.528 C 312.891 291.596,313.462 292.167,314.160 292.798 L 315.430 293.945 314.282 292.676 C 313.213 291.492,312.891 291.227,312.891 291.528 M274.805 298.438 C 275.644 299.297,276.418 300.000,276.526 300.000 C 276.633 300.000,276.034 299.297,275.195 298.438 C 274.356 297.578,273.582 296.875,273.474 296.875 C 273.367 296.875,273.966 297.578,274.805 298.438 M316.903 299.609 C 316.903 300.576,316.979 300.972,317.073 300.488 C 317.166 300.005,317.166 299.214,317.073 298.730 C 316.979 298.247,316.903 298.643,316.903 299.609 M280.843 304.785 C 281.801 305.806,282.636 306.641,282.699 306.641 C 282.992 306.641,282.682 306.290,280.957 304.671 L 279.102 302.930 280.843 304.785 M287.093 311.426 C 288.051 312.446,288.886 313.281,288.949 313.281 C 289.242 313.281,288.932 312.931,287.207 311.312 L 285.352 309.570 287.093 311.426 M305.962 310.046 C 306.556 310.136,307.435 310.133,307.916 310.041 C 308.396 309.948,307.910 309.874,306.836 309.877 C 305.762 309.880,305.369 309.956,305.962 310.046 M321.661 314.551 L 320.117 316.211 321.777 314.667 C 323.321 313.231,323.617 312.891,323.321 312.891 C 323.258 312.891,322.511 313.638,321.661 314.551 " stroke="none" fill="#404f65" fill-rule="evenodd"></path><path id="path4" d="M334.368 66.895 C 338.171 70.795,338.672 71.271,338.672 70.989 C 338.672 70.932,336.782 69.042,334.473 66.790 L 330.273 62.695 334.368 66.895 M175.041 177.847 C 173.489 178.343,172.162 179.526,159.180 191.995 C 153.809 197.153,138.340 211.999,124.805 224.986 C 63.868 283.453,69.336 277.752,69.336 282.813 C 69.336 287.583,70.822 289.846,79.222 297.872 L 84.029 302.465 85.948 300.575 L 87.867 298.686 88.734 299.440 L 89.601 300.195 88.764 298.989 C 88.304 298.325,87.655 297.557,87.323 297.281 C 86.303 296.435,86.129 296.627,108.105 274.303 C 167.272 214.202,177.267 204.035,182.620 198.514 L 188.415 192.536 185.516 189.599 C 182.101 186.138,181.080 185.528,178.828 185.602 L 177.148 185.657 179.175 185.903 C 180.290 186.039,181.299 186.247,181.417 186.365 C 181.604 186.552,154.386 214.453,96.546 273.369 C 84.493 285.645,80.410 290.035,80.684 290.419 C 80.888 290.703,81.478 291.525,81.995 292.245 C 82.733 293.273,82.499 293.135,80.908 291.603 C 79.663 290.406,78.709 289.080,78.437 288.172 C 78.174 287.295,77.879 286.876,77.713 287.144 C 77.296 287.818,75.391 284.341,75.391 282.906 C 75.391 280.979,76.249 280.106,109.012 248.721 C 126.107 232.344,148.232 211.123,158.178 201.563 C 168.125 192.002,176.519 184.032,176.832 183.851 C 178.047 183.150,180.683 183.457,182.478 184.510 C 185.003 185.989,190.756 185.606,190.162 183.997 C 188.481 179.445,180.370 176.145,175.041 177.847 M389.153 183.594 C 389.153 184.346,389.234 184.653,389.332 184.277 C 389.430 183.901,389.430 183.286,389.332 182.910 C 389.234 182.534,389.153 182.842,389.153 183.594 M151.465 209.203 C 139.058 221.351,128.906 231.386,128.906 231.504 C 128.906 231.622,137.124 223.676,147.168 213.847 C 170.684 190.832,174.452 187.109,174.217 187.113 C 174.110 187.115,163.872 197.056,151.465 209.203 M389.552 188.477 C 389.556 189.336,389.636 189.642,389.729 189.156 C 389.823 188.670,389.819 187.967,389.722 187.593 C 389.624 187.220,389.547 187.617,389.552 188.477 M12.208 188.867 C 12.212 189.727,12.292 190.032,12.386 189.546 C 12.479 189.060,12.476 188.357,12.378 187.984 C 12.280 187.610,12.204 188.008,12.208 188.867 M199.219 192.773 C 201.251 194.814,203.002 196.484,203.110 196.484 C 203.217 196.484,201.642 194.814,199.609 192.773 C 197.577 190.732,195.826 189.063,195.719 189.063 C 195.611 189.063,197.186 190.732,199.219 192.773 M390.006 200.781 C 390.006 204.756,390.064 206.382,390.135 204.395 C 390.206 202.407,390.206 199.155,390.135 197.168 C 390.064 195.181,390.006 196.807,390.006 200.781 M11.878 201.172 C 11.878 204.717,11.937 206.167,12.009 204.395 C 12.082 202.622,12.082 199.722,12.009 197.949 C 11.937 196.177,11.878 197.627,11.878 201.172 M12.216 213.281 C 12.216 214.248,12.292 214.644,12.385 214.160 C 12.478 213.677,12.478 212.886,12.385 212.402 C 12.292 211.919,12.216 212.314,12.216 213.281 M389.560 213.281 C 389.560 214.248,389.636 214.644,389.729 214.160 C 389.822 213.677,389.822 212.886,389.729 212.402 C 389.636 211.919,389.560 212.314,389.560 213.281 M389.161 218.164 C 389.165 219.023,389.245 219.329,389.339 218.843 C 389.432 218.357,389.429 217.654,389.331 217.281 C 389.233 216.907,389.157 217.305,389.161 218.164 M118.750 241.211 C 114.565 245.400,111.228 248.828,111.336 248.828 C 111.443 248.828,114.955 245.400,119.141 241.211 C 123.326 237.021,126.662 233.594,126.555 233.594 C 126.448 233.594,122.935 237.021,118.750 241.211 M101.168 258.496 L 93.945 265.820 101.270 258.598 C 108.074 251.887,108.770 251.172,108.492 251.172 C 108.436 251.172,105.140 254.468,101.168 258.496 M380.692 259.208 C 380.548 259.780,380.506 260.324,380.598 260.416 C 380.690 260.508,380.883 260.115,381.027 259.542 C 381.170 258.970,381.213 258.426,381.121 258.334 C 381.029 258.242,380.836 258.635,380.692 259.208 M84.705 274.512 C 79.038 280.222,77.382 282.199,77.862 282.680 C 77.968 282.785,78.178 282.463,78.331 281.963 C 78.484 281.463,81.437 278.198,84.894 274.707 C 88.351 271.216,91.097 268.359,90.996 268.359 C 90.894 268.359,88.064 271.128,84.705 274.512 M29.325 280.664 C 29.325 280.879,29.576 281.494,29.883 282.031 C 30.190 282.568,30.441 282.832,30.441 282.617 C 30.441 282.402,30.190 281.787,29.883 281.250 C 29.576 280.713,29.325 280.449,29.325 280.664 M370.974 283.418 C 369.540 286.342,369.673 286.689,371.139 283.848 C 371.787 282.591,372.252 281.497,372.172 281.417 C 372.092 281.337,371.553 282.238,370.974 283.418 M77.442 284.961 C 77.447 285.820,77.527 286.126,77.620 285.640 C 77.713 285.154,77.710 284.451,77.612 284.077 C 77.514 283.704,77.438 284.102,77.442 284.961 M367.969 289.453 C 367.530 290.313,367.260 291.016,367.367 291.016 C 367.474 291.016,367.921 290.313,368.359 289.453 C 368.798 288.594,369.069 287.891,368.961 287.891 C 368.854 287.891,368.407 288.594,367.969 289.453 M357.603 306.738 C 357.000 307.651,356.757 308.192,357.062 307.940 C 357.649 307.456,359.145 305.078,358.863 305.078 C 358.772 305.078,358.205 305.825,357.603 306.738 M355.419 309.863 C 354.933 310.562,354.086 311.739,353.537 312.480 C 352.988 313.221,352.727 313.714,352.956 313.576 C 353.450 313.277,356.778 308.594,356.497 308.594 C 356.390 308.594,355.906 309.165,355.419 309.863 M346.875 321.094 C 345.976 322.168,345.328 323.047,345.435 323.047 C 345.542 323.047,346.366 322.168,347.266 321.094 C 348.165 320.020,348.813 319.141,348.706 319.141 C 348.598 319.141,347.774 320.020,346.875 321.094 M60.547 327.930 C 61.276 328.682,61.960 329.297,62.067 329.297 C 62.175 329.297,61.666 328.682,60.938 327.930 C 60.209 327.178,59.524 326.563,59.417 326.563 C 59.310 326.563,59.818 327.178,60.547 327.930 M336.357 332.912 C 333.043 336.402,331.518 338.115,332.969 336.719 C 335.654 334.134,342.779 326.561,342.523 326.564 C 342.446 326.565,339.671 329.421,336.357 332.912 M67.188 334.961 C 69.220 337.002,70.971 338.672,71.078 338.672 C 71.186 338.672,69.611 337.002,67.578 334.961 C 65.546 332.920,63.795 331.250,63.687 331.250 C 63.580 331.250,65.155 332.920,67.188 334.961 M327.915 341.113 L 325.977 343.164 328.027 341.226 C 329.155 340.159,330.078 339.237,330.078 339.175 C 330.078 338.883,329.716 339.208,327.915 341.113 M73.047 340.357 C 73.047 340.424,73.618 340.995,74.316 341.626 L 75.586 342.773 74.439 341.504 C 73.369 340.321,73.047 340.055,73.047 340.357 M322.461 345.744 C 318.558 349.085,318.014 349.788,321.569 346.899 C 324.263 344.708,325.753 343.319,325.341 343.382 C 325.261 343.394,323.965 344.457,322.461 345.744 M313.086 353.156 C 310.769 354.908,310.457 355.403,312.630 353.879 C 314.271 352.728,315.165 351.928,314.769 351.964 C 314.703 351.970,313.945 352.506,313.086 353.156 M309.180 356.089 L 308.008 357.096 309.277 356.256 C 309.976 355.794,310.547 355.340,310.547 355.247 C 310.547 354.954,310.381 355.056,309.180 356.089 M285.156 370.313 C 283.545 371.151,282.363 371.845,282.529 371.856 C 282.945 371.882,288.281 369.177,288.281 368.940 C 288.281 368.677,288.410 368.620,285.156 370.313 M114.453 369.334 C 114.453 369.597,118.407 371.567,118.583 371.391 C 118.663 371.311,117.766 370.774,116.591 370.197 C 115.415 369.621,114.453 369.232,114.453 369.334 M278.125 373.633 C 277.588 373.940,277.324 374.191,277.539 374.191 C 277.754 374.191,278.369 373.940,278.906 373.633 C 279.443 373.326,279.707 373.075,279.492 373.075 C 279.277 373.075,278.662 373.326,278.125 373.633 M219.629 389.332 C 220.005 389.430,220.620 389.430,220.996 389.332 C 221.372 389.234,221.064 389.153,220.313 389.153 C 219.561 389.153,219.253 389.234,219.629 389.332 M184.863 389.722 C 185.239 389.821,185.854 389.821,186.230 389.722 C 186.606 389.624,186.299 389.544,185.547 389.544 C 184.795 389.544,184.487 389.624,184.863 389.722 M215.532 389.729 C 216.018 389.823,216.721 389.819,217.094 389.722 C 217.468 389.624,217.070 389.547,216.211 389.552 C 215.352 389.556,215.046 389.636,215.532 389.729 M190.337 390.124 C 190.931 390.214,191.810 390.211,192.291 390.119 C 192.771 390.026,192.285 389.953,191.211 389.955 C 190.137 389.958,189.744 390.034,190.337 390.124 M209.473 390.124 C 210.063 390.213,211.030 390.213,211.621 390.124 C 212.212 390.034,211.729 389.961,210.547 389.961 C 209.365 389.961,208.882 390.034,209.473 390.124 " stroke="none" fill="#6e85aa" fill-rule="evenodd"></path><path id="path5" d="M257.594 10.755 C 258.315 11.300,258.184 11.494,254.859 14.807 L 251.367 18.286 255.051 19.320 C 316.659 36.608,368.452 90.613,384.331 154.122 C 419.916 296.447,289.152 423.224,148.293 382.963 C 89.201 366.073,40.233 318.879,21.276 260.547 C 20.473 258.076,19.730 255.904,19.625 255.721 C 19.520 255.537,17.997 256.817,16.240 258.565 C 14.483 260.313,12.923 261.620,12.773 261.470 C 12.295 260.993,12.480 262.535,13.029 263.612 C 13.320 264.182,13.862 265.615,14.232 266.797 C 18.999 281.986,30.044 302.721,41.832 318.608 C 110.630 411.331,244.485 425.771,331.250 349.830 C 430.525 262.940,419.400 106.514,308.789 34.022 C 296.135 25.728,277.173 16.510,265.039 12.752 C 263.965 12.420,261.680 11.705,259.961 11.165 C 257.958 10.535,257.108 10.388,257.594 10.755 M209.994 40.625 C 201.198 41.471,186.447 44.576,180.411 46.851 C 170.291 50.665,169.428 65.039,179.039 69.706 C 182.400 71.338,186.112 71.770,189.943 70.976 C 202.159 68.445,223.105 78.327,231.212 90.448 C 234.207 94.926,234.454 96.688,232.694 101.037 C 230.992 105.242,230.329 109.868,230.856 113.867 L 231.215 116.602 214.891 132.943 L 198.567 149.284 187.736 139.023 C 178.978 130.727,176.942 128.608,177.102 127.956 C 181.226 111.093,185.222 91.678,185.066 89.258 C 184.750 84.374,182.924 81.892,176.653 77.826 C 171.062 74.202,162.590 68.733,142.168 55.566 C 116.962 39.315,118.203 39.340,102.855 54.778 C 92.355 65.340,92.036 65.819,92.021 71.094 C 92.005 76.468,91.913 76.344,107.659 92.188 L 121.441 106.055 120.425 109.632 L 119.410 113.209 115.711 114.259 L 112.012 115.308 97.901 101.243 L 83.789 87.178 80.870 86.298 C 77.621 85.318,74.717 85.520,71.637 86.940 C 68.958 88.174,53.320 104.008,51.866 106.957 C 50.235 110.266,50.154 114.010,51.645 117.205 C 52.820 119.724,87.038 169.194,89.648 172.148 C 94.264 177.372,95.725 177.410,119.100 172.906 C 128.854 171.027,136.954 169.631,137.102 169.804 C 137.250 169.976,140.158 173.076,143.565 176.693 C 148.077 181.481,149.660 183.405,149.392 183.774 C 149.189 184.052,129.512 202.997,105.664 225.873 C 81.816 248.749,61.757 268.238,61.087 269.182 C 55.182 277.501,54.884 286.528,60.213 295.617 C 61.803 298.329,84.633 321.588,87.891 323.815 C 99.014 331.419,111.777 331.472,120.815 323.951 C 122.058 322.917,135.314 309.150,150.273 293.359 C 165.233 277.568,182.927 258.892,189.594 251.855 C 196.261 244.819,201.818 239.063,201.942 239.063 C 202.066 239.063,209.546 246.917,218.564 256.517 C 287.420 329.812,283.037 325.285,288.387 328.644 C 320.725 348.946,357.898 305.737,332.946 276.850 C 331.691 275.397,316.777 261.087,299.805 245.052 C 282.832 229.016,262.141 209.463,253.824 201.600 L 238.702 187.305 253.963 172.027 L 269.224 156.749 271.624 157.525 C 275.671 158.835,285.094 158.861,288.453 157.572 C 288.795 157.441,289.792 158.073,290.945 159.152 L 292.867 160.950 291.889 163.580 C 284.097 184.541,309.007 205.411,328.031 193.860 C 330.845 192.152,353.200 170.100,355.081 167.177 C 358.626 161.670,359.648 152.344,357.361 146.390 C 353.478 136.282,344.747 129.731,334.338 129.115 C 331.007 128.918,331.322 129.268,328.136 122.223 C 321.917 108.472,318.512 104.341,288.023 73.563 C 269.163 54.524,262.565 49.778,248.026 44.793 C 237.400 41.149,222.040 39.466,209.994 40.625 M233.984 47.598 C 251.367 50.724,265.019 58.279,277.929 71.917 C 279.432 73.505,286.843 81.133,294.398 88.867 C 312.572 107.475,317.127 113.043,320.919 121.289 C 324.395 128.847,326.590 133.106,327.676 134.400 L 328.844 135.793 331.185 135.406 C 345.177 133.092,357.004 149.448,350.624 162.291 C 349.069 165.422,328.073 186.813,324.609 188.797 C 308.742 197.882,289.564 177.889,299.299 162.411 C 300.442 160.595,300.449 160.549,299.742 159.659 C 293.849 152.239,291.170 150.651,286.445 151.781 C 280.930 153.099,274.399 152.464,269.869 150.168 L 267.850 149.145 251.099 165.881 C 237.792 179.176,234.389 182.778,234.549 183.398 C 234.699 183.980,234.231 184.640,232.715 185.982 L 230.678 187.784 234.773 191.885 C 237.025 194.141,247.217 203.878,257.422 213.524 C 332.918 284.881,329.525 281.578,331.764 285.871 C 343.853 309.044,318.697 335.980,295.049 325.185 C 288.380 322.141,293.926 327.687,236.457 266.602 C 219.681 248.770,205.054 233.307,203.953 232.241 L 201.952 230.301 199.758 232.436 C 198.552 233.610,187.963 244.678,176.227 257.031 C 107.769 329.093,115.262 321.737,108.930 323.095 C 99.802 325.053,94.590 322.289,79.752 307.621 C 63.310 291.367,60.976 287.414,63.047 279.329 C 64.548 273.469,61.069 277.102,111.328 228.909 C 134.639 206.557,153.768 188.099,153.838 187.892 C 153.909 187.686,153.069 186.568,151.972 185.409 L 149.979 183.301 152.178 181.291 L 154.378 179.280 150.655 175.285 C 148.607 173.087,145.117 169.385,142.899 167.057 L 138.867 162.826 120.117 166.447 C 99.854 170.359,97.409 170.637,95.459 169.247 C 94.491 168.556,65.385 127.287,58.443 116.761 C 55.154 111.773,55.590 110.756,65.191 101.027 C 77.854 88.195,75.800 87.751,95.703 107.619 L 110.352 122.242 117.374 120.203 L 124.396 118.164 126.257 111.523 C 127.280 107.871,128.119 104.640,128.121 104.343 C 128.123 104.047,121.779 97.544,114.023 89.892 C 97.542 73.634,96.862 72.699,98.459 68.499 C 98.997 67.082,114.983 50.989,116.626 50.210 C 119.016 49.076,121.029 49.409,124.447 51.505 C 132.292 56.315,176.113 84.800,177.206 85.800 C 179.813 88.184,179.840 87.906,174.816 110.171 C 172.339 121.150,170.313 130.340,170.313 130.593 C 170.313 131.035,193.465 153.168,194.236 153.464 C 194.441 153.542,195.515 152.714,196.621 151.622 L 198.633 149.637 200.913 151.639 L 203.194 153.641 220.588 136.247 L 237.983 118.852 237.281 115.220 C 236.406 110.692,236.838 106.908,238.718 102.639 C 241.765 95.722,239.219 88.707,230.709 80.572 C 219.851 70.192,202.340 62.996,191.589 64.497 C 190.092 64.706,188.135 64.979,187.241 65.103 C 177.493 66.455,174.777 54.865,184.180 52.043 C 201.438 46.863,220.460 45.165,233.984 47.598 M304.730 296.248 C 302.607 297.425,302.114 300.374,303.721 302.285 C 305.668 304.599,309.241 304.085,310.394 301.326 C 311.886 297.755,308.114 294.373,304.730 296.248 " stroke="none" fill="#10258e" fill-rule="evenodd"></path><path id="path6" d="M192.871 12.001 C 193.569 12.088,194.712 12.088,195.410 12.001 C 196.108 11.915,195.537 11.844,194.141 11.844 C 192.744 11.844,192.173 11.915,192.871 12.001 M206.543 12.001 C 207.241 12.088,208.384 12.088,209.082 12.001 C 209.780 11.915,209.209 11.844,207.813 11.844 C 206.416 11.844,205.845 11.915,206.543 12.001 M186.426 12.379 C 186.802 12.477,187.417 12.477,187.793 12.379 C 188.169 12.280,187.861 12.200,187.109 12.200 C 186.357 12.200,186.050 12.280,186.426 12.379 M214.160 12.379 C 214.536 12.477,215.151 12.477,215.527 12.379 C 215.903 12.280,215.596 12.200,214.844 12.200 C 214.092 12.200,213.784 12.280,214.160 12.379 M194.629 21.374 C 195.220 21.463,196.187 21.463,196.777 21.374 C 197.368 21.284,196.885 21.211,195.703 21.211 C 194.521 21.211,194.038 21.284,194.629 21.374 M205.962 21.374 C 206.556 21.464,207.435 21.461,207.916 21.369 C 208.396 21.276,207.910 21.203,206.836 21.205 C 205.762 21.208,205.369 21.284,205.962 21.374 M329.102 62.109 C 329.941 62.969,330.715 63.672,330.823 63.672 C 330.930 63.672,330.331 62.969,329.492 62.109 C 328.653 61.250,327.879 60.547,327.771 60.547 C 327.664 60.547,328.262 61.250,329.102 62.109 M72.245 62.402 L 70.898 63.867 72.363 62.521 C 73.727 61.268,74.008 60.938,73.709 60.938 C 73.644 60.938,72.985 61.597,72.245 62.402 M77.514 70.410 L 76.367 71.680 77.637 70.532 C 78.820 69.463,79.086 69.141,78.784 69.141 C 78.717 69.141,78.146 69.712,77.514 70.410 M327.930 73.828 C 330.286 76.191,332.301 78.125,332.409 78.125 C 332.516 78.125,330.676 76.191,328.320 73.828 C 325.964 71.465,323.949 69.531,323.841 69.531 C 323.734 69.531,325.574 71.465,327.930 73.828 M338.867 71.875 C 339.925 72.949,340.879 73.828,340.986 73.828 C 341.094 73.828,340.316 72.949,339.258 71.875 C 338.200 70.801,337.246 69.922,337.139 69.922 C 337.031 69.922,337.809 70.801,338.867 71.875 M62.677 71.973 L 61.133 73.633 62.793 72.089 C 63.706 71.239,64.453 70.492,64.453 70.429 C 64.453 70.133,64.113 70.429,62.677 71.973 M70.483 77.441 L 69.336 78.711 70.605 77.564 C 71.789 76.494,72.055 76.172,71.753 76.172 C 71.686 76.172,71.114 76.743,70.483 77.441 M153.711 112.500 C 154.769 113.574,155.723 114.453,155.830 114.453 C 155.937 114.453,155.160 113.574,154.102 112.500 C 153.043 111.426,152.090 110.547,151.982 110.547 C 151.875 110.547,152.653 111.426,153.711 112.500 M137.197 119.821 L 136.761 121.680 157.891 142.832 C 174.386 159.345,178.857 164.025,178.279 164.173 C 177.872 164.277,178.803 164.383,180.348 164.408 C 181.893 164.433,183.247 164.308,183.357 164.130 C 183.600 163.737,182.959 163.083,157.747 137.985 L 137.633 117.962 137.197 119.821 M158.398 137.500 C 159.238 138.359,160.012 139.063,160.119 139.063 C 160.227 139.063,159.628 138.359,158.789 137.500 C 157.950 136.641,157.175 135.938,157.068 135.938 C 156.961 135.938,157.559 136.641,158.398 137.500 M264.453 138.086 C 265.182 138.838,265.866 139.453,265.974 139.453 C 266.081 139.453,265.573 138.838,264.844 138.086 C 264.115 137.334,263.431 136.719,263.323 136.719 C 263.216 136.719,263.724 137.334,264.453 138.086 M163.672 142.310 C 163.672 142.377,164.243 142.948,164.941 143.579 L 166.211 144.727 165.064 143.457 C 163.994 142.274,163.672 142.008,163.672 142.310 M335.812 146.788 C 336.495 147.373,338.296 148.968,339.816 150.333 C 343.309 153.472,343.508 152.542,340.068 149.153 C 338.688 147.793,337.501 146.648,337.432 146.609 C 337.017 146.380,335.062 145.705,334.838 145.714 C 334.691 145.719,335.129 146.203,335.812 146.788 M385.234 159.961 C 385.234 160.391,385.375 161.182,385.547 161.719 C 385.795 162.492,385.860 162.533,385.860 161.914 C 385.860 161.484,385.719 160.693,385.547 160.156 C 385.299 159.383,385.234 159.342,385.234 159.961 M386.421 165.625 C 386.421 166.162,386.555 167.129,386.719 167.773 C 386.985 168.819,387.017 168.840,387.017 167.969 C 387.017 167.432,386.883 166.465,386.719 165.820 C 386.453 164.775,386.421 164.754,386.421 165.625 M387.177 169.922 C 387.164 170.459,387.300 171.602,387.478 172.461 C 387.685 173.463,387.809 173.673,387.823 173.047 C 387.836 172.510,387.700 171.367,387.522 170.508 C 387.315 169.506,387.191 169.295,387.177 169.922 M387.974 175.195 C 387.966 175.840,388.096 177.246,388.263 178.320 C 388.512 179.917,388.572 180.024,388.591 178.906 C 388.604 178.154,388.473 176.748,388.301 175.781 C 388.074 174.503,387.984 174.343,387.974 175.195 M188.281 181.836 C 189.448 183.018,190.491 183.984,190.598 183.984 C 190.706 183.984,189.839 183.018,188.672 181.836 C 187.505 180.654,186.462 179.688,186.355 179.688 C 186.247 179.688,187.114 180.654,188.281 181.836 M12.981 181.641 C 12.981 182.393,13.062 182.700,13.160 182.324 C 13.258 181.948,13.258 181.333,13.160 180.957 C 13.062 180.581,12.981 180.889,12.981 181.641 M388.789 182.422 C 388.789 183.604,388.862 184.087,388.952 183.496 C 389.041 182.905,389.041 181.938,388.952 181.348 C 388.862 180.757,388.789 181.240,388.789 182.422 M12.599 186.133 C 12.603 186.992,12.683 187.298,12.776 186.812 C 12.870 186.326,12.866 185.623,12.768 185.249 C 12.671 184.876,12.594 185.273,12.599 186.133 M380.177 186.133 C 380.181 186.992,380.261 187.298,380.354 186.812 C 380.448 186.326,380.444 185.623,380.347 185.249 C 380.249 184.876,380.172 185.273,380.177 186.133 M389.390 195.703 C 391.076 309.963,296.041 398.477,182.875 388.049 C 108.584 381.203,44.618 329.970,21.493 258.789 C 18.724 250.266,18.815 250.527,18.781 251.065 C 18.573 254.291,28.128 278.653,33.684 289.063 C 101.667 416.440,278.764 425.056,358.844 304.883 C 381.172 271.375,392.909 226.409,389.484 187.500 C 389.342 185.889,389.300 189.580,389.390 195.703 M193.555 187.109 C 194.613 188.184,195.566 189.063,195.674 189.063 C 195.781 189.063,195.003 188.184,193.945 187.109 C 192.887 186.035,191.934 185.156,191.826 185.156 C 191.719 185.156,192.497 186.035,193.555 187.109 M175.691 186.631 C 173.703 187.550,79.544 279.625,78.500 281.671 C 76.900 284.807,77.840 288.653,80.934 291.629 C 82.524 293.159,82.742 293.286,81.995 292.245 C 81.478 291.525,80.888 290.703,80.684 290.419 C 80.410 290.035,84.493 285.645,96.546 273.369 C 165.607 203.025,181.609 186.549,181.152 186.260 C 180.304 185.721,177.206 185.932,175.691 186.631 M21.575 191.016 C 21.575 191.768,21.655 192.075,21.754 191.699 C 21.852 191.323,21.852 190.708,21.754 190.332 C 21.655 189.956,21.575 190.264,21.575 191.016 M12.241 192.969 C 12.241 194.580,12.310 195.239,12.394 194.434 C 12.478 193.628,12.478 192.310,12.394 191.504 C 12.310 190.698,12.241 191.357,12.241 192.969 M380.590 192.383 C 380.592 193.672,380.665 194.152,380.752 193.450 C 380.839 192.748,380.837 191.693,380.748 191.106 C 380.659 190.519,380.588 191.094,380.590 192.383 M204.671 198.145 C 205.629 199.165,206.464 200.000,206.527 200.000 C 206.820 200.000,206.510 199.649,204.785 198.031 L 202.930 196.289 204.671 198.145 M12.243 208.789 C 12.245 210.508,12.313 211.162,12.396 210.244 C 12.478 209.325,12.477 207.919,12.393 207.119 C 12.309 206.319,12.242 207.070,12.243 208.789 M380.590 209.961 C 380.592 211.250,380.665 211.730,380.752 211.028 C 380.839 210.326,380.837 209.271,380.748 208.684 C 380.659 208.097,380.588 208.672,380.590 209.961 M21.575 211.328 C 21.575 212.080,21.655 212.388,21.754 212.012 C 21.852 211.636,21.852 211.021,21.754 210.645 C 21.655 210.269,21.575 210.576,21.575 211.328 M227.932 212.049 C 227.074 213.049,226.724 213.570,227.155 213.208 C 227.916 212.567,228.951 213.561,263.842 248.457 L 299.745 284.366 301.338 283.909 C 302.213 283.658,302.989 283.410,303.062 283.359 C 303.267 283.213,230.075 210.151,229.766 210.193 C 229.615 210.213,228.790 211.048,227.932 212.049 M12.606 215.625 C 12.606 216.592,12.683 216.987,12.776 216.504 C 12.869 216.021,12.869 215.229,12.776 214.746 C 12.683 214.263,12.606 214.658,12.606 215.625 M380.169 216.016 C 380.169 216.768,380.249 217.075,380.347 216.699 C 380.446 216.323,380.446 215.708,380.347 215.332 C 380.249 214.956,380.169 215.264,380.169 216.016 M12.989 220.117 C 12.993 220.977,13.073 221.282,13.167 220.796 C 13.260 220.310,13.257 219.607,13.159 219.234 C 13.061 218.860,12.985 219.258,12.989 220.117 M16.094 240.039 C 16.094 240.469,16.234 241.260,16.406 241.797 C 16.654 242.570,16.719 242.611,16.719 241.992 C 16.719 241.563,16.578 240.771,16.406 240.234 C 16.159 239.461,16.094 239.420,16.094 240.039 M17.252 245.117 C 17.247 245.949,18.254 249.294,18.311 248.633 C 18.329 248.418,18.100 247.363,17.801 246.289 C 17.502 245.215,17.255 244.688,17.252 245.117 M361.801 281.460 C 360.900 283.278,360.247 284.766,360.350 284.766 C 360.610 284.766,363.755 278.468,363.581 278.295 C 363.504 278.217,362.703 279.642,361.801 281.460 M334.354 321.777 L 333.008 323.242 334.473 321.896 C 335.836 320.643,336.117 320.313,335.819 320.313 C 335.754 320.313,335.094 320.972,334.354 321.777 M73.821 328.223 C 76.073 330.532,77.963 332.422,78.020 332.422 C 78.302 332.422,77.826 331.921,73.926 328.118 L 69.727 324.023 73.821 328.223 M327.922 328.613 L 324.414 332.227 328.027 328.719 C 330.015 326.790,331.641 325.164,331.641 325.106 C 331.641 324.822,331.179 325.257,327.922 328.613 M321.073 335.059 L 319.727 336.523 321.191 335.177 C 322.555 333.924,322.836 333.594,322.538 333.594 C 322.472 333.594,321.813 334.253,321.073 335.059 M217.676 380.347 C 218.052 380.446,218.667 380.446,219.043 380.347 C 219.419 380.249,219.111 380.169,218.359 380.169 C 217.607 380.169,217.300 380.249,217.676 380.347 M187.793 380.744 C 188.276 380.838,189.067 380.838,189.551 380.744 C 190.034 380.651,189.639 380.575,188.672 380.575 C 187.705 380.575,187.310 380.651,187.793 380.744 M212.793 380.744 C 213.276 380.838,214.067 380.838,214.551 380.744 C 215.034 380.651,214.639 380.575,213.672 380.575 C 212.705 380.575,212.310 380.651,212.793 380.744 M197.344 381.150 C 199.213 381.221,202.377 381.222,204.375 381.151 C 206.373 381.080,204.844 381.021,200.977 381.021 C 197.109 381.020,195.475 381.078,197.344 381.150 " stroke="none" fill="#88a5cf" fill-rule="evenodd"></path><path id="path7" d="M229.102 56.586 L 232.227 59.745 235.997 60.721 C 239.962 61.747,244.509 63.433,247.582 65.018 C 248.902 65.698,257.729 74.290,279.180 95.774 L 308.946 125.586 311.513 131.024 C 317.550 143.814,323.200 150.025,328.318 149.497 L 330.351 149.287 334.718 153.203 C 339.546 157.532,339.367 156.955,336.796 159.898 C 336.076 160.723,335.544 161.428,335.614 161.465 C 335.685 161.502,336.127 161.855,336.597 162.250 C 338.060 163.479,342.182 159.134,343.006 155.493 C 343.326 154.081,343.030 151.613,342.620 152.276 C 342.337 152.735,334.909 146.160,335.076 145.597 C 335.249 145.011,331.604 145.469,330.089 146.225 C 328.526 147.005,328.489 147.009,328.729 146.382 C 328.834 146.110,327.447 144.163,325.648 142.053 C 321.915 137.677,319.505 133.817,317.237 128.585 C 313.939 120.976,311.253 116.596,306.069 110.376 C 302.765 106.412,272.274 75.130,267.268 70.568 C 256.757 60.990,242.379 54.558,229.492 53.669 L 225.977 53.427 229.102 56.586 M117.755 57.520 L 116.211 59.180 117.871 57.636 C 119.415 56.200,119.711 55.859,119.415 55.859 C 119.351 55.859,118.604 56.606,117.755 57.520 M106.439 69.147 L 104.509 71.107 120.070 86.671 L 135.630 102.236 132.608 112.823 C 129.597 123.369,129.580 123.412,128.367 123.792 C 125.161 124.797,108.911 129.297,108.490 129.297 C 108.227 129.297,101.066 122.353,92.576 113.865 L 77.141 98.434 71.871 103.806 C 68.801 106.936,68.204 107.629,70.441 105.468 L 74.280 101.758 90.594 118.336 L 106.907 134.914 119.958 131.055 C 127.135 128.932,133.074 127.148,133.156 127.089 C 133.385 126.924,140.995 100.663,141.006 99.998 C 141.014 99.478,109.100 67.188,108.577 67.188 C 108.463 67.188,107.501 68.069,106.439 69.147 M246.296 100.722 C 246.152 101.506,245.416 103.526,244.659 105.210 C 243.367 108.089,243.293 108.475,243.426 111.656 C 243.678 117.705,244.249 118.406,265.831 139.190 C 272.439 145.554,277.782 147.318,284.878 145.479 C 286.258 145.121,288.327 144.917,289.818 144.990 L 292.383 145.117 289.425 142.087 L 286.468 139.056 284.392 139.450 C 283.250 139.667,281.334 139.844,280.135 139.844 L 277.955 139.844 263.782 125.691 C 248.111 110.042,248.787 110.964,250.357 107.374 C 251.633 104.455,251.582 104.242,248.962 101.663 L 246.557 99.295 246.296 100.722 M141.874 102.441 C 141.682 103.140,140.672 106.937,139.630 110.881 L 137.736 118.051 160.664 140.900 C 173.274 153.467,183.494 163.908,183.374 164.101 C 183.255 164.295,181.541 164.456,179.567 164.459 C 173.299 164.469,168.165 166.248,164.072 169.828 L 161.992 171.647 160.391 169.878 C 152.050 160.667,142.440 150.890,141.869 151.034 C 141.507 151.126,131.377 153.363,119.357 156.005 C 96.170 161.103,96.780 160.911,98.191 162.675 L 99.112 163.826 119.185 160.006 C 130.225 157.906,139.701 156.101,140.242 155.995 C 141.174 155.813,148.736 163.349,157.259 172.953 L 158.855 174.750 160.497 173.430 L 162.140 172.110 164.122 174.092 L 166.104 176.074 168.608 174.178 C 172.682 171.095,180.341 169.665,184.375 171.235 C 184.761 171.385,186.421 170.070,189.244 167.377 L 193.527 163.291 191.282 161.291 C 189.670 159.854,189.147 159.158,189.426 158.821 C 189.709 158.481,186.189 154.934,176.580 145.875 C 168.032 137.817,163.337 133.122,163.321 132.617 C 163.308 132.188,163.710 130.024,164.214 127.810 L 165.130 123.784 163.131 121.874 L 161.133 119.965 160.858 121.018 C 160.707 121.597,160.161 124.033,159.645 126.432 L 158.708 130.794 173.716 144.945 L 188.725 159.096 187.051 160.802 C 186.130 161.740,185.254 162.462,185.106 162.406 C 184.889 162.325,172.382 150.621,158.213 137.241 L 156.075 135.222 157.901 127.669 C 158.905 123.516,159.780 119.832,159.844 119.483 C 159.958 118.863,143.256 101.172,142.556 101.172 C 142.374 101.172,142.067 101.743,141.874 102.441 M337.891 146.560 C 340.389 148.884,341.867 150.032,340.625 148.685 C 339.873 147.869,338.906 147.016,338.477 146.790 C 338.047 146.564,337.783 146.460,337.891 146.560 M231.641 198.700 C 231.641 199.341,231.318 199.583,230.176 199.796 C 229.370 199.947,228.492 200.251,228.225 200.472 C 227.957 200.693,227.386 200.781,226.955 200.669 C 225.816 200.371,225.988 200.842,227.573 202.365 C 229.818 204.521,230.659 205.818,229.795 205.790 C 229.414 205.778,228.398 205.889,227.539 206.037 C 226.104 206.284,224.280 206.524,223.195 206.607 C 222.953 206.626,222.637 207.735,222.489 209.082 C 221.602 217.146,216.420 225.486,213.084 224.218 L 212.136 223.858 212.783 225.215 L 213.430 226.572 211.959 228.079 L 210.488 229.585 249.922 271.531 C 297.702 322.354,293.622 318.387,300.195 320.402 C 318.539 326.024,335.882 303.537,325.441 287.667 C 323.472 284.674,322.603 283.834,275.586 239.450 C 253.672 218.763,234.819 200.946,233.691 199.858 C 231.973 198.199,231.641 198.012,231.641 198.700 M290.075 254.760 C 321.811 284.722,323.315 286.253,325.374 290.675 C 333.393 307.899,313.481 324.751,297.412 314.339 C 295.417 313.047,226.990 241.169,215.528 228.325 L 213.673 226.247 221.744 218.208 L 229.815 210.169 231.794 212.018 C 232.883 213.035,249.376 229.468,268.446 248.535 L 303.120 283.203 306.382 283.203 C 308.627 283.203,310.352 283.447,311.917 283.985 C 313.168 284.416,314.223 284.723,314.263 284.669 C 314.302 284.615,309.393 279.912,303.353 274.219 C 244.205 218.464,231.238 206.066,231.472 205.493 C 231.609 205.157,231.814 203.794,231.928 202.464 L 232.135 200.044 245.462 212.633 C 252.792 219.557,272.868 238.514,290.075 254.760 M306.250 288.417 C 303.435 289.429,303.421 289.679,306.187 289.523 C 317.136 288.904,321.368 303.499,311.757 308.731 C 308.162 310.687,303.602 310.436,300.510 308.112 C 299.758 307.546,299.904 307.805,300.977 308.936 C 306.085 314.326,315.326 313.937,318.961 308.178 C 325.205 298.288,316.487 284.735,306.250 288.417 M298.128 294.043 C 296.106 296.925,295.970 301.708,297.822 304.867 C 298.844 306.611,299.655 307.404,298.818 305.841 C 298.001 304.314,297.694 300.925,298.123 298.174 C 298.352 296.708,298.572 295.147,298.613 294.707 C 298.653 294.266,298.816 293.695,298.975 293.437 C 299.553 292.503,298.862 292.996,298.128 294.043 " stroke="none" fill="#949495" fill-rule="evenodd"></path><path id="path8" d="M226.956 56.399 C 229.217 58.632,230.654 59.743,231.470 59.891 C 232.560 60.088,232.373 59.821,229.388 56.909 C 226.119 53.722,226.112 53.710,227.214 53.464 C 227.989 53.291,227.619 53.204,225.979 53.171 L 223.638 53.125 226.956 56.399 M112.297 62.988 L 108.398 66.992 112.402 63.093 C 114.604 60.949,116.406 59.147,116.406 59.089 C 116.406 58.807,115.919 59.269,112.297 62.988 M240.430 62.461 C 241.074 62.867,257.797 79.434,277.592 99.276 L 313.583 135.352 311.267 130.469 L 308.951 125.586 279.182 95.774 C 247.932 64.478,248.845 65.302,242.786 62.896 C 239.355 61.533,238.794 61.429,240.430 62.461 M246.484 98.245 C 246.484 99.323,250.957 104.085,251.598 103.689 C 252.431 103.174,251.801 101.975,249.501 99.696 C 246.761 96.980,246.484 96.847,246.484 98.245 M92.578 113.867 C 101.062 122.354,108.092 129.297,108.199 129.297 C 108.307 129.297,101.453 122.354,92.969 113.867 C 84.484 105.381,77.455 98.438,77.347 98.438 C 77.240 98.438,84.094 105.381,92.578 113.867 M249.789 108.528 C 248.968 110.911,248.906 110.835,263.782 125.691 L 277.955 139.844 280.676 139.791 C 282.174 139.761,283.041 139.666,282.604 139.579 C 282.167 139.492,274.645 132.353,265.889 123.714 C 256.350 114.304,249.896 108.216,249.789 108.528 M288.732 141.439 C 289.869 142.746,291.136 143.996,291.546 144.216 C 292.145 144.536,292.187 144.681,291.757 144.947 C 291.373 145.184,291.469 145.259,292.095 145.212 C 293.307 145.121,293.249 144.969,290.798 141.837 C 289.134 139.711,288.398 139.063,287.646 139.063 C 286.717 139.063,286.776 139.189,288.732 141.439 M245.897 162.207 L 224.805 183.398 245.996 162.306 C 265.694 142.700,267.363 141.016,267.088 141.016 C 267.034 141.016,257.498 150.552,245.897 162.207 M328.452 145.393 C 328.739 145.760,328.860 146.243,328.722 146.467 C 328.583 146.692,328.656 146.875,328.883 146.875 C 329.536 146.875,329.365 145.852,328.613 145.263 C 327.998 144.780,327.982 144.793,328.452 145.393 M327.539 149.609 C 326.465 149.757,326.006 149.905,326.518 149.939 C 327.057 149.974,328.624 151.057,330.229 152.502 C 337.922 159.431,337.351 158.805,336.714 159.614 C 336.175 160.299,336.183 160.312,336.835 159.800 C 337.221 159.497,337.881 158.766,338.301 158.175 L 339.066 157.101 334.670 153.160 C 332.253 150.992,330.099 149.246,329.883 149.280 C 329.668 149.314,328.613 149.462,327.539 149.609 M189.280 158.948 C 189.053 159.316,192.789 162.891,193.402 162.891 C 194.112 162.891,193.702 162.228,191.881 160.435 C 189.941 158.523,189.647 158.355,189.280 158.948 M334.577 162.103 C 333.489 163.238,333.479 163.288,334.174 164.056 C 335.090 165.068,335.130 165.062,336.734 163.669 C 337.477 163.023,337.910 162.538,337.695 162.592 C 337.145 162.729,335.497 161.508,335.810 161.195 C 335.952 161.054,335.983 160.938,335.880 160.938 C 335.777 160.938,335.191 161.462,334.577 162.103 M187.292 169.238 L 184.961 171.680 187.402 169.348 C 189.670 167.182,190.022 166.797,189.734 166.797 C 189.673 166.797,188.575 167.896,187.292 169.238 M195.299 170.215 L 193.164 172.461 195.410 170.326 C 196.646 169.152,197.656 168.141,197.656 168.080 C 197.656 167.790,197.283 168.128,195.299 170.215 M160.393 173.535 L 158.936 174.805 161.112 176.943 L 163.288 179.082 164.739 177.631 L 166.190 176.180 164.262 174.223 C 161.977 171.903,162.216 171.946,160.393 173.535 M187.479 178.027 L 186.133 179.492 187.598 178.146 C 188.403 177.406,189.063 176.746,189.063 176.681 C 189.063 176.383,188.732 176.664,187.479 178.027 M178.418 177.229 C 178.901 177.322,179.692 177.322,180.176 177.229 C 180.659 177.136,180.264 177.060,179.297 177.060 C 178.330 177.060,177.935 177.136,178.418 177.229 M170.489 180.957 L 168.945 182.617 170.605 181.073 C 172.149 179.637,172.445 179.297,172.150 179.297 C 172.086 179.297,171.339 180.044,170.489 180.957 M177.799 183.601 C 176.886 183.810,175.252 185.113,172.330 187.963 C 167.432 192.740,129.006 229.616,99.023 258.313 C 72.978 283.241,74.090 281.891,76.384 285.806 C 77.621 287.917,77.569 287.941,77.553 285.254 C 77.530 281.491,76.889 282.188,111.643 248.173 C 182.345 178.974,174.848 185.988,178.496 185.637 C 180.922 185.404,181.947 185.982,185.516 189.599 L 188.415 192.536 182.620 198.514 C 177.267 204.035,167.272 214.202,108.105 274.303 C 86.129 296.627,86.303 296.435,87.323 297.281 C 87.655 297.557,88.304 298.325,88.764 298.989 L 89.601 300.195 88.734 299.440 L 87.867 298.686 85.922 300.601 L 83.977 302.517 80.172 298.819 C 78.079 296.785,80.146 298.953,84.766 303.636 C 94.501 313.507,100.117 317.484,103.251 316.729 C 103.542 316.659,127.563 292.735,156.632 263.565 L 209.484 210.529 209.527 208.292 C 209.602 204.419,208.791 202.534,205.636 199.243 L 202.827 196.313 202.001 197.668 C 200.761 199.703,200.886 202.195,202.337 204.336 C 203.265 205.706,203.503 206.478,203.509 208.141 L 203.516 210.227 200.087 213.805 C 196.772 217.265,185.057 229.630,154.877 261.523 C 146.948 269.902,137.290 280.098,133.414 284.180 C 129.538 288.262,122.449 295.758,117.660 300.838 C 108.400 310.661,107.789 311.129,104.582 310.864 C 101.318 310.593,99.112 309.218,94.677 304.690 L 90.661 300.590 95.038 296.098 C 116.604 273.959,198.223 192.244,198.576 192.437 C 198.822 192.572,197.110 190.742,194.771 188.371 L 190.519 184.060 189.302 184.802 C 187.562 185.864,184.664 185.787,182.652 184.626 C 180.654 183.473,179.458 183.221,177.799 183.601 M217.969 190.039 C 217.020 191.006,216.331 191.797,216.439 191.797 C 216.546 191.797,217.411 191.006,218.359 190.039 C 219.308 189.072,219.997 188.281,219.889 188.281 C 219.782 188.281,218.918 189.072,217.969 190.039 M160.724 190.332 L 159.180 191.992 160.840 190.448 C 162.384 189.012,162.680 188.672,162.384 188.672 C 162.320 188.672,161.573 189.419,160.724 190.332 M212.101 195.996 L 208.789 199.414 212.207 196.102 C 214.087 194.281,215.625 192.743,215.625 192.684 C 215.625 192.400,215.177 192.822,212.101 195.996 M225.480 200.496 L 222.266 203.727 222.331 206.649 C 222.367 208.256,222.466 208.911,222.550 208.105 C 222.634 207.300,222.913 206.626,223.168 206.607 C 224.228 206.530,226.073 206.290,227.539 206.037 C 228.398 205.889,229.414 205.778,229.795 205.790 C 230.659 205.818,229.818 204.521,227.573 202.365 C 225.988 200.842,225.816 200.371,226.955 200.669 C 227.386 200.781,227.957 200.693,228.225 200.472 C 228.492 200.251,229.406 199.940,230.255 199.781 L 231.799 199.493 230.465 198.379 C 228.756 196.952,229.188 196.769,225.480 200.496 M151.349 199.316 L 149.805 200.977 151.465 199.432 C 153.009 197.996,153.305 197.656,153.009 197.656 C 152.945 197.656,152.198 198.403,151.349 199.316 M141.393 208.887 L 139.258 211.133 141.504 208.998 C 143.591 207.014,143.929 206.641,143.639 206.641 C 143.578 206.641,142.567 207.651,141.393 208.887 M389.934 208.984 C 389.934 209.736,390.015 210.044,390.113 209.668 C 390.211 209.292,390.211 208.677,390.113 208.301 C 390.015 207.925,389.934 208.232,389.934 208.984 M131.627 218.262 L 129.492 220.508 131.738 218.373 C 133.825 216.389,134.163 216.016,133.873 216.016 C 133.812 216.016,132.802 217.026,131.627 218.262 M218.717 220.070 C 218.628 220.151,217.106 220.337,215.336 220.482 C 210.656 220.866,210.628 220.877,208.591 223.129 C 206.490 225.450,206.513 225.610,209.349 228.305 L 210.565 229.461 212.002 228.024 L 213.438 226.588 212.787 225.223 L 212.136 223.858 213.092 224.221 C 213.936 224.542,219.141 220.990,219.141 220.093 C 219.141 219.883,218.936 219.872,218.717 220.070 M121.862 227.637 L 119.727 229.883 121.973 227.748 C 124.059 225.764,124.398 225.391,124.108 225.391 C 124.047 225.391,123.036 226.401,121.862 227.637 M112.096 237.012 L 109.961 239.258 112.207 237.123 C 114.294 235.139,114.632 234.766,114.342 234.766 C 114.281 234.766,113.270 235.776,112.096 237.012 M102.524 246.191 L 100.586 248.242 102.637 246.304 C 103.765 245.238,104.688 244.315,104.688 244.253 C 104.688 243.961,104.326 244.286,102.524 246.191 M92.969 255.273 C 92.020 256.240,91.331 257.031,91.439 257.031 C 91.546 257.031,92.411 256.240,93.359 255.273 C 94.308 254.307,94.997 253.516,94.889 253.516 C 94.782 253.516,93.918 254.307,92.969 255.273 M83.203 264.648 C 82.254 265.615,81.566 266.406,81.673 266.406 C 81.781 266.406,82.645 265.615,83.594 264.648 C 84.543 263.682,85.231 262.891,85.124 262.891 C 85.016 262.891,84.152 263.682,83.203 264.648 M73.438 274.023 C 72.489 274.990,71.800 275.781,71.908 275.781 C 72.015 275.781,72.879 274.990,73.828 274.023 C 74.777 273.057,75.465 272.266,75.358 272.266 C 75.251 272.266,74.386 273.057,73.438 274.023 M299.273 292.893 C 298.742 293.639,298.607 294.169,298.850 294.553 C 299.130 294.996,299.208 295.005,299.213 294.592 C 299.216 294.302,299.582 293.555,300.027 292.931 C 300.471 292.307,300.659 291.797,300.444 291.797 C 300.229 291.797,299.702 292.290,299.273 292.893 M198.746 390.524 C 200.097 390.600,202.206 390.600,203.433 390.523 C 204.660 390.445,203.555 390.383,200.977 390.384 C 198.398 390.384,197.395 390.447,198.746 390.524 " stroke="none" fill="#4d638b" fill-rule="evenodd"></path></g></svg>