<svg aria-hidden="true" viewBox="0 0 448 512">
<link type="text/css" rel="stylesheet" id="dark-mode-general-link"/>
<link type="text/css" rel="stylesheet" id="dark-mode-custom-link"/>
<style type="text/css" id="dark-mode-custom-style"/>
<path d="M416 208H272V64c0-17.67-14.33-32-32-32h-32c-17.67 0-32 14.33-32 32v144H32c-17.67 0-32 14.33-32 32v32c0 17.67 14.33 32 32 32h144v144c0 17.67 14.33 32 32 32h32c17.67 0 32-14.33 32-32V304h144c17.67 0 32-14.33 32-32v-32c0-17.67-14.33-32-32-32z" class=""/>
</svg>